<?xml version="1.0" encoding="UTF-8"?>
<svg width="246px" height="86px" viewBox="0 0 246 86" version="1.1" xmlns="http://www.w3.org/2000/svg" xmlns:xlink="http://www.w3.org/1999/xlink">
    <title>basic</title>
    <g id="Bio" stroke="none" stroke-width="1" fill="none" fill-rule="evenodd">
        <g id="basic." transform="translate(0.2734, 0.3369)" fill="#FFFFFF" fill-rule="nonzero">
            <path d="M33.6541443,84.8963928 C31.0906982,84.8963928 28.6985931,84.5196457 26.477829,83.7661514 C24.2570648,83.0126572 22.2770767,81.8735733 20.5378647,80.3488998 C18.7986526,78.8242264 17.3642883,76.9201965 16.2347717,74.6368103 L16.1530151,74.6368103 L16.1530151,83.6630859 L-1.42108547e-14,83.6630859 L-1.42108547e-14,0.723632812 L16.3756714,0.723632812 L16.3756714,33.0244446 L16.457428,33.0244446 C17.7191467,30.8952942 19.206131,29.1421661 20.9183807,27.7650604 C22.6306305,26.3879547 24.5704651,25.3575897 26.7378845,24.6739655 C28.905304,23.9903412 31.2507324,23.6485291 33.7741699,23.6485291 C38.7949524,23.6485291 43.2015457,24.9388046 46.9939499,27.5193558 C50.7863541,30.0999069 53.7501755,33.686615 55.8854141,38.27948 C58.0206528,42.872345 59.0882721,48.1833344 59.0882721,54.2124481 C59.0882721,60.3441925 58.0355835,65.7115707 55.9302063,70.3145828 C53.8248291,74.9175949 50.8710098,78.4986496 47.0687485,81.0577469 C43.2664871,83.6168442 38.7949524,84.8963928 33.6541443,84.8963928 Z M29.411499,71.5404968 C32.0839539,71.5404968 34.3983612,70.8609314 36.3547211,69.5018005 C38.3110809,68.1426697 39.8311157,66.1709442 40.9148254,63.5866241 C41.9985352,61.0023041 42.54039,57.8775787 42.54039,54.2124481 C42.54039,50.5305023 41.9985352,47.4073715 40.9148254,44.8430557 C39.8311157,42.2787399 38.3110809,40.3168716 36.3547211,38.9574509 C34.3983612,37.5980301 32.0839539,36.9183197 29.411499,36.9183197 C26.6561279,36.9183197 24.2380753,37.6320953 22.157341,39.0596466 C20.0766068,40.4871979 18.4629288,42.491684 17.3163071,45.0731049 C16.1696854,47.6545258 15.5963745,50.7009735 15.5963745,54.2124481 C15.5963745,57.7065277 16.1696854,60.7542801 17.3163071,63.3557053 C18.4629288,65.9571304 20.0766068,67.9716187 22.157341,69.3991699 C24.2380753,70.8267212 26.6561279,71.5404968 29.411499,71.5404968 Z" id="Shape"></path>
            <path d="M76.0670389,84.644165 C72.1502603,84.644165 68.6718362,83.9962006 65.6317667,82.7002716 C62.5916971,81.4043427 60.1968378,79.4547958 58.4471887,76.8516312 C56.6975397,74.2484665 55.8227151,70.998642 55.8227151,67.1021576 C55.8227151,63.765213 56.4363245,60.9940414 57.6635431,58.7886429 C58.8907617,56.5832443 60.5683664,54.8073578 62.6963571,53.4609833 C64.8243478,52.1146088 67.2741464,51.0909119 70.0457529,50.3898926 C72.8173593,49.6888733 75.7289957,49.1928253 78.7806619,48.9017487 C82.3686746,48.5428314 85.2237772,48.19841 87.3459695,47.8684845 C89.4681619,47.538559 90.9889215,47.0567169 91.9082483,46.4229584 C92.8275751,45.7891998 93.2872385,44.8403015 93.2872385,43.5762634 L93.2872385,43.1996613 C93.2872385,41.7489166 92.9022287,40.4732819 92.1322092,39.372757 C91.3621896,38.2722321 90.2635492,37.4091492 88.8362878,36.7835083 C87.4090265,36.1578674 85.6931528,35.845047 83.6886667,35.845047 C81.6609872,35.845047 79.8793024,36.1643906 78.3436121,36.8030777 C76.8079217,37.4417648 75.5937494,38.3349991 74.701095,39.4827805 C73.8084405,40.6305618 73.2878946,41.967514 73.1394571,43.4936371 L57.709205,43.4936371 C57.974769,39.4330597 59.1780694,35.92173 61.3191064,32.9596481 C63.4601434,29.9975662 66.4587549,27.7051926 70.3149408,26.0825272 C74.1711267,24.4598618 78.7890695,23.6485291 84.1687692,23.6485291 C88.1841196,23.6485291 91.7644495,24.1073227 94.9097589,25.02491 C98.0550683,25.9424973 100.712158,27.2748108 102.881027,29.0218506 C105.049896,30.7688904 106.69387,32.8851395 107.81295,35.3705978 C108.932029,37.8560562 109.491569,40.6660767 109.491569,43.8006592 L109.491569,83.6630859 L93.4672769,83.6630859 L93.4672769,75.3734894 L93.2446207,75.3734894 C92.2188943,77.2846222 90.9393457,78.9345398 89.4059747,80.3232422 C87.8726038,81.7119446 86.0164102,82.779274 83.8373941,83.5252304 C81.658378,84.2711868 79.0682596,84.644165 76.0670389,84.644165 Z M80.5888742,73.2669525 C83.2259592,73.2669525 85.5051416,72.7816315 87.4264215,71.8109894 C89.3477014,70.8403473 90.8248285,69.5222397 91.8578027,67.8566666 C92.890777,66.1910934 93.4072641,64.2986603 93.4072641,62.1793671 L93.4072641,56.2737579 C92.9358591,56.5277252 92.3086236,56.77314 91.5255579,57.0100021 C90.7424921,57.2468643 89.8320077,57.4743042 88.7941049,57.6923218 C87.7562021,57.9103394 86.6269754,58.1242981 85.4064249,58.334198 C84.1858743,58.5440979 82.9111093,58.7502289 81.5821298,58.9525909 C79.7191232,59.2291718 78.0268777,59.6741943 76.5053934,60.2876587 C74.983909,60.901123 73.7726358,61.7212982 72.8715738,62.7481842 C71.9705118,63.7750702 71.5199808,65.0712891 71.5199808,66.6368408 C71.5199808,68.0139465 71.896438,69.2010117 72.6493524,70.1980362 C73.4022668,71.1950607 74.4574197,71.9558029 75.8148111,72.4802628 C77.1722024,73.0047226 78.7635568,73.2669525 80.5888742,73.2669525 Z" id="Shape"></path>
            <path d="M134.606088,85.0894775 C129.531381,85.0894775 125.01143,84.3077164 121.046236,82.744194 C117.081041,81.1806717 113.90558,78.912941 111.519853,75.9410019 C109.134126,72.9690628 107.771371,69.3893127 107.431589,65.2017517 L123.575906,65.2017517 C123.869882,67.7483826 124.940256,69.7440262 126.787027,71.1886826 C128.633798,72.6333389 131.145929,73.3556671 134.323419,73.3556671 C137.383783,73.3556671 139.781541,72.7775726 141.516695,71.6213837 C143.251848,70.4651947 144.119424,68.9790802 144.119424,67.1630402 C144.119424,65.6177826 143.45334,64.3675156 142.121172,63.4122391 C140.789003,62.4569626 138.915704,61.7427521 136.501276,61.2696075 L126.196466,59.2830963 C120.501337,58.1645966 116.172731,56.1637344 113.210649,53.2805099 C110.248567,50.3972855 108.767526,46.6914215 108.767526,42.1629181 C108.767526,38.4427032 109.777597,35.1928787 111.797739,32.4134445 C113.81788,29.6340103 116.693422,27.4763031 120.424364,25.9403229 C124.155305,24.4043427 128.568277,23.6363525 133.663278,23.6363525 C138.747263,23.6363525 143.183282,24.4463806 146.971338,26.0664368 C150.759393,27.6864929 153.724229,29.9768372 155.865846,32.9374695 C158.007463,35.8981018 159.133936,39.4269714 159.245264,43.5240784 L144.053323,43.5240784 C144.016214,41.1682129 143.081232,39.2102585 141.248376,37.6502151 C139.415521,36.0901718 137.047479,35.3101501 134.14425,35.3101501 C131.326257,35.3101501 129.111581,35.9066544 127.500223,37.0996628 C125.888864,38.2926712 125.083185,39.7600861 125.083185,41.5019073 C125.083185,43.0274506 125.714189,44.2769928 126.976198,45.2505341 C128.238206,46.2240753 129.98887,46.944809 132.228189,47.412735 L143.374048,49.5792847 C149.315607,50.7546082 153.68886,52.6489258 156.493806,55.2622375 C159.298753,57.8755493 160.701227,61.3475952 160.701227,65.6783752 C160.701227,69.5957336 159.597658,73.0084915 157.39052,75.9166489 C155.183382,78.8248062 152.116495,81.0806503 148.189859,82.6841812 C144.263223,84.2877121 139.7353,85.0894775 134.606088,85.0894775 Z" id="Path"></path>
            <path d="M158.567515,83.6630859 L158.567515,24.8818359 L174.988413,24.8818359 L174.988413,83.6630859 L158.567515,83.6630859 Z M166.750132,17.4785156 C164.041148,17.4785156 161.79603,16.652832 160.01478,15.0014648 C158.23353,13.3500977 157.342905,11.2626953 157.342905,8.73925781 C157.342905,6.21582031 158.23353,4.12841797 160.01478,2.47705078 C161.79603,0.825683594 164.022593,0 166.694468,0 C169.403452,0 171.64857,0.825683594 173.42982,2.47705078 C175.21107,4.12841797 176.101695,6.21582031 176.101695,8.73925781 C176.101695,11.2626953 175.21107,13.3500977 173.42982,15.0014648 C171.64857,16.652832 169.422007,17.4785156 166.750132,17.4785156 Z" id="Shape"></path>
            <path d="M202.603412,84.9990234 C196.724476,84.9990234 191.569461,83.7059937 187.13837,81.1199341 C182.707279,78.5338745 179.260311,74.9349899 176.797466,70.3232803 C174.334621,65.7115707 173.103199,60.3784027 173.103199,54.3237762 C173.103199,48.2517548 174.334621,42.9014816 176.797466,38.2729568 C179.260311,33.6444321 182.707279,30.0327911 187.13837,27.4380341 C191.569461,24.843277 196.724476,23.5458984 202.603412,23.5458984 C206.463947,23.5458984 210.024128,24.1163101 213.283954,25.2571335 C216.543781,26.3979568 219.389316,28.0069962 221.82056,30.0842514 C224.251804,32.1615067 226.194103,34.6186981 227.647457,37.4558258 C229.100811,40.2929535 229.961429,43.4263763 230.229313,46.8560944 L214.343311,46.8560944 C214.129352,45.352005 213.71941,43.986496 213.113483,42.7595673 C212.507557,41.5326385 211.714634,40.4756012 210.734714,39.5884552 C209.754795,38.7013092 208.606723,38.0159454 207.2905,37.5323639 C205.974277,37.0487823 204.491932,36.8069916 202.843464,36.8069916 C200.091571,36.8069916 197.729618,37.5200424 195.757602,38.9461441 C193.785587,40.3722458 192.27483,42.3945618 191.22533,45.013092 C190.175831,47.6316223 189.651081,50.7351837 189.651081,54.3237762 C189.651081,57.8752594 190.175831,60.9566422 191.22533,63.5679245 C192.27483,66.1792068 193.786312,68.1936951 195.759777,69.6113892 C197.733242,71.0290833 200.094471,71.7379303 202.843464,71.7379303 C204.491932,71.7379303 205.96587,71.4996185 207.265278,71.022995 C208.564685,70.5463715 209.687099,69.8644867 210.632518,68.9773407 C211.577938,68.0901947 212.353611,67.0189514 212.959537,65.7636108 C213.565464,64.5082703 214.000919,63.1100006 214.265903,61.5688019 L230.229313,61.5688019 C230.041446,64.9643097 229.235912,68.085556 227.812709,70.9325409 C226.389507,73.7795258 224.453006,76.2559967 222.003208,78.3619537 C219.553409,80.4679108 216.683666,82.1005783 213.393978,83.2599564 C210.10429,84.4193344 206.507435,84.9990234 202.603412,84.9990234 Z" id="Path"></path>
            <path d="M236.227449,84.6693878 C233.616457,84.6693878 231.3883,83.746727 229.542978,81.9014053 C227.697657,80.0560837 226.774996,77.8279266 226.774996,75.2169342 C226.774996,72.5885468 227.697657,70.355896 229.542978,68.5189819 C231.3883,66.6820679 233.616457,65.7636108 236.227449,65.7636108 C238.855837,65.7636108 241.088488,66.6820679 242.925402,68.5189819 C244.762316,70.355896 245.680773,72.5885468 245.680773,75.2169342 C245.680773,77.8279266 244.762316,80.0560837 242.925402,81.9014053 C241.088488,83.746727 238.855837,84.6693878 236.227449,84.6693878 Z" id="Path"></path>
        </g>
    </g>
</svg>