<?xml version="1.0" encoding="UTF-8"?>
<svg width="237px" height="86px" viewBox="0 0 237 86" version="1.1" xmlns="http://www.w3.org/2000/svg" xmlns:xlink="http://www.w3.org/1999/xlink">
    <title>basic</title>
    <g id="Symbols" stroke="none" stroke-width="1" fill="none" fill-rule="evenodd">
        <g id="basic." transform="translate(0.8117, 0.3369)" fill="#000000" fill-rule="nonzero">
            <path d="M33.6541443,84.8963928 C31.0906982,84.8963928 28.6985931,84.5196457 26.477829,83.7661514 C24.2570648,83.0126572 22.2770767,81.8735733 20.5378647,80.3488998 C18.7986526,78.8242264 17.3642883,76.9201965 16.2347717,74.6368103 L16.1530151,74.6368103 L16.1530151,83.6630859 L0,83.6630859 L0,0.723632812 L16.3756714,0.723632812 L16.3756714,33.0244446 L16.457428,33.0244446 C17.7191467,30.8952942 19.206131,29.1421661 20.9183807,27.7650604 C22.6306305,26.3879547 24.5704651,25.3575897 26.7378845,24.6739655 C28.905304,23.9903412 31.2507324,23.6485291 33.7741699,23.6485291 C38.7949524,23.6485291 43.2015457,24.9388046 46.9939499,27.5193558 C50.7863541,30.0999069 53.7501755,33.686615 55.8854141,38.27948 C58.0206528,42.872345 59.0882721,48.1833344 59.0882721,54.2124481 C59.0882721,60.3441925 58.0355835,65.7115707 55.9302063,70.3145828 C53.8248291,74.9175949 50.8710098,78.4986496 47.0687485,81.0577469 C43.2664871,83.6168442 38.7949524,84.8963928 33.6541443,84.8963928 Z M29.411499,71.5404968 C32.0839539,71.5404968 34.3983612,70.8609314 36.3547211,69.5018005 C38.3110809,68.1426697 39.8311157,66.1709442 40.9148254,63.5866241 C41.9985352,61.0023041 42.54039,57.8775787 42.54039,54.2124481 C42.54039,50.5305023 41.9985352,47.4073715 40.9148254,44.8430557 C39.8311157,42.2787399 38.3110809,40.3168716 36.3547211,38.9574509 C34.3983612,37.5980301 32.0839539,36.9183197 29.411499,36.9183197 C26.6561279,36.9183197 24.2380753,37.6320953 22.157341,39.0596466 C20.0766068,40.4871979 18.4629288,42.491684 17.3163071,45.0731049 C16.1696854,47.6545258 15.5963745,50.7009735 15.5963745,54.2124481 C15.5963745,57.7065277 16.1696854,60.7542801 17.3163071,63.3557053 C18.4629288,65.9571304 20.0766068,67.9716187 22.157341,69.3991699 C24.2380753,70.8267212 26.6561279,71.5404968 29.411499,71.5404968 Z" id="Shape"></path>
            <path d="M75.0670389,84.644165 C71.1502603,84.644165 67.6718362,83.9962006 64.6317667,82.7002716 C61.5916971,81.4043427 59.1968378,79.4547958 57.4471887,76.8516312 C55.6975397,74.2484665 54.8227151,70.998642 54.8227151,67.1021576 C54.8227151,63.765213 55.4363245,60.9940414 56.6635431,58.7886429 C57.8907617,56.5832443 59.5683664,54.8073578 61.6963571,53.4609833 C63.8243478,52.1146088 66.2741464,51.0909119 69.0457529,50.3898926 C71.8173593,49.6888733 74.7289957,49.1928253 77.7806619,48.9017487 C81.3686746,48.5428314 84.2237772,48.19841 86.3459695,47.8684845 C88.4681619,47.538559 89.9889215,47.0567169 90.9082483,46.4229584 C91.8275751,45.7891998 92.2872385,44.8403015 92.2872385,43.5762634 L92.2872385,43.1996613 C92.2872385,41.7489166 91.9022287,40.4732819 91.1322092,39.372757 C90.3621896,38.2722321 89.2635492,37.4091492 87.8362878,36.7835083 C86.4090265,36.1578674 84.6931528,35.845047 82.6886667,35.845047 C80.6609872,35.845047 78.8793024,36.1643906 77.3436121,36.8030777 C75.8079217,37.4417648 74.5937494,38.3349991 73.701095,39.4827805 C72.8084405,40.6305618 72.2878946,41.967514 72.1394571,43.4936371 L56.709205,43.4936371 C56.974769,39.4330597 58.1780694,35.92173 60.3191064,32.9596481 C62.4601434,29.9975662 65.4587549,27.7051926 69.3149408,26.0825272 C73.1711267,24.4598618 77.7890695,23.6485291 83.1687692,23.6485291 C87.1841196,23.6485291 90.7644495,24.1073227 93.9097589,25.02491 C97.0550683,25.9424973 99.7121576,27.2748108 101.881027,29.0218506 C104.049896,30.7688904 105.69387,32.8851395 106.81295,35.3705978 C107.932029,37.8560562 108.491569,40.6660767 108.491569,43.8006592 L108.491569,83.6630859 L92.4672769,83.6630859 L92.4672769,75.3734894 L92.2446207,75.3734894 C91.2188943,77.2846222 89.9393457,78.9345398 88.4059747,80.3232422 C86.8726038,81.7119446 85.0164102,82.779274 82.8373941,83.5252304 C80.658378,84.2711868 78.0682596,84.644165 75.0670389,84.644165 Z M79.5888742,73.2669525 C82.2259592,73.2669525 84.5051416,72.7816315 86.4264215,71.8109894 C88.3477014,70.8403473 89.8248285,69.5222397 90.8578027,67.8566666 C91.890777,66.1910934 92.4072641,64.2986603 92.4072641,62.1793671 L92.4072641,56.2737579 C91.9358591,56.5277252 91.3086236,56.77314 90.5255579,57.0100021 C89.7424921,57.2468643 88.8320077,57.4743042 87.7941049,57.6923218 C86.7562021,57.9103394 85.6269754,58.1242981 84.4064249,58.334198 C83.1858743,58.5440979 81.9111093,58.7502289 80.5821298,58.9525909 C78.7191232,59.2291718 77.0268777,59.6741943 75.5053934,60.2876587 C73.983909,60.901123 72.7726358,61.7212982 71.8715738,62.7481842 C70.9705118,63.7750702 70.5199808,65.0712891 70.5199808,66.6368408 C70.5199808,68.0139465 70.896438,69.2010117 71.6493524,70.1980362 C72.4022668,71.1950607 73.4574197,71.9558029 74.8148111,72.4802628 C76.1722024,73.0047226 77.7635568,73.2669525 79.5888742,73.2669525 Z" id="Shape"></path>
            <path d="M132.606088,85.0894775 C127.531381,85.0894775 123.01143,84.3077164 119.046236,82.744194 C115.081041,81.1806717 111.90558,78.912941 109.519853,75.9410019 C107.134126,72.9690628 105.771371,69.3893127 105.431589,65.2017517 L121.575906,65.2017517 C121.869882,67.7483826 122.940256,69.7440262 124.787027,71.1886826 C126.633798,72.6333389 129.145929,73.3556671 132.323419,73.3556671 C135.383783,73.3556671 137.781541,72.7775726 139.516695,71.6213837 C141.251848,70.4651947 142.119424,68.9790802 142.119424,67.1630402 C142.119424,65.6177826 141.45334,64.3675156 140.121172,63.4122391 C138.789003,62.4569626 136.915704,61.7427521 134.501276,61.2696075 L124.196466,59.2830963 C118.501337,58.1645966 114.172731,56.1637344 111.210649,53.2805099 C108.248567,50.3972855 106.767526,46.6914215 106.767526,42.1629181 C106.767526,38.4427032 107.777597,35.1928787 109.797739,32.4134445 C111.81788,29.6340103 114.693422,27.4763031 118.424364,25.9403229 C122.155305,24.4043427 126.568277,23.6363525 131.663278,23.6363525 C136.747263,23.6363525 141.183282,24.4463806 144.971338,26.0664368 C148.759393,27.6864929 151.724229,29.9768372 153.865846,32.9374695 C156.007463,35.8981018 157.133936,39.4269714 157.245264,43.5240784 L142.053323,43.5240784 C142.016214,41.1682129 141.081232,39.2102585 139.248376,37.6502151 C137.415521,36.0901718 135.047479,35.3101501 132.14425,35.3101501 C129.326257,35.3101501 127.111581,35.9066544 125.500223,37.0996628 C123.888864,38.2926712 123.083185,39.7600861 123.083185,41.5019073 C123.083185,43.0274506 123.714189,44.2769928 124.976198,45.2505341 C126.238206,46.2240753 127.98887,46.944809 130.228189,47.412735 L141.374048,49.5792847 C147.315607,50.7546082 151.68886,52.6489258 154.493806,55.2622375 C157.298753,57.8755493 158.701227,61.3475952 158.701227,65.6783752 C158.701227,69.5957336 157.597658,73.0084915 155.39052,75.9166489 C153.183382,78.8248062 150.116495,81.0806503 146.189859,82.6841812 C142.263223,84.2877121 137.7353,85.0894775 132.606088,85.0894775 Z" id="Path"></path>
            <path d="M155.567515,83.6630859 L155.567515,24.8818359 L171.988413,24.8818359 L171.988413,83.6630859 L155.567515,83.6630859 Z M163.750132,17.4785156 C161.041148,17.4785156 158.79603,16.652832 157.01478,15.0014648 C155.23353,13.3500977 154.342905,11.2626953 154.342905,8.73925781 C154.342905,6.21582031 155.23353,4.12841797 157.01478,2.47705078 C158.79603,0.825683594 161.022593,0 163.694468,0 C166.403452,0 168.64857,0.825683594 170.42982,2.47705078 C172.21107,4.12841797 173.101695,6.21582031 173.101695,8.73925781 C173.101695,11.2626953 172.21107,13.3500977 170.42982,15.0014648 C168.64857,16.652832 166.422007,17.4785156 163.750132,17.4785156 Z" id="Shape"></path>
            <path d="M198.603412,84.9990234 C192.724476,84.9990234 187.569461,83.7059937 183.13837,81.1199341 C178.707279,78.5338745 175.260311,74.9349899 172.797466,70.3232803 C170.334621,65.7115707 169.103199,60.3784027 169.103199,54.3237762 C169.103199,48.2517548 170.334621,42.9014816 172.797466,38.2729568 C175.260311,33.6444321 178.707279,30.0327911 183.13837,27.4380341 C187.569461,24.843277 192.724476,23.5458984 198.603412,23.5458984 C202.463947,23.5458984 206.024128,24.1163101 209.283954,25.2571335 C212.543781,26.3979568 215.389316,28.0069962 217.82056,30.0842514 C220.251804,32.1615067 222.194103,34.6186981 223.647457,37.4558258 C225.100811,40.2929535 225.961429,43.4263763 226.229313,46.8560944 L210.343311,46.8560944 C210.129352,45.352005 209.71941,43.986496 209.113483,42.7595673 C208.507557,41.5326385 207.714634,40.4756012 206.734714,39.5884552 C205.754795,38.7013092 204.606723,38.0159454 203.2905,37.5323639 C201.974277,37.0487823 200.491932,36.8069916 198.843464,36.8069916 C196.091571,36.8069916 193.729618,37.5200424 191.757602,38.9461441 C189.785587,40.3722458 188.27483,42.3945618 187.22533,45.013092 C186.175831,47.6316223 185.651081,50.7351837 185.651081,54.3237762 C185.651081,57.8752594 186.175831,60.9566422 187.22533,63.5679245 C188.27483,66.1792068 189.786312,68.1936951 191.759777,69.6113892 C193.733242,71.0290833 196.094471,71.7379303 198.843464,71.7379303 C200.491932,71.7379303 201.96587,71.4996185 203.265278,71.022995 C204.564685,70.5463715 205.687099,69.8644867 206.632518,68.9773407 C207.577938,68.0901947 208.353611,67.0189514 208.959537,65.7636108 C209.565464,64.5082703 210.000919,63.1100006 210.265903,61.5688019 L226.229313,61.5688019 C226.041446,64.9643097 225.235912,68.085556 223.812709,70.9325409 C222.389507,73.7795258 220.453006,76.2559967 218.003208,78.3619537 C215.553409,80.4679108 212.683666,82.1005783 209.393978,83.2599564 C206.10429,84.4193344 202.507435,84.9990234 198.603412,84.9990234 Z" id="Path"></path>
            <path d="M226.127449,84.6693878 C223.516457,84.6693878 221.2883,83.746727 219.442978,81.9014053 C217.597657,80.0560837 216.674996,77.8279266 216.674996,75.2169342 C216.674996,72.5885468 217.597657,70.355896 219.442978,68.5189819 C221.2883,66.6820679 223.516457,65.7636108 226.127449,65.7636108 C228.755837,65.7636108 230.988488,66.6820679 232.825402,68.5189819 C234.662316,70.355896 235.580773,72.5885468 235.580773,75.2169342 C235.580773,77.8279266 234.662316,80.0560837 232.825402,81.9014053 C230.988488,83.746727 228.755837,84.6693878 226.127449,84.6693878 Z" id="Path"></path>
        </g>
    </g>
</svg>